<svg id="Layer_1" data-name="Layer 1" xmlns="http://www.w3.org/2000/svg" viewBox="0 0 308.03 179.23"><defs><style>.cls-1{fill:#fdf9ed;}.cls-2{fill:#689a3e;}</style></defs><path class="cls-1" d="M67.77,34.58h6.15l12.72,33h-6.2l-3.1-8.74H64.17l-3.1,8.74h-6Zm-2,19.88H75.82L70.87,40.27h-.14Z"/><path class="cls-1" d="M86,34.58h6l8.27,26.12h.09l8.46-26.12h5.87l-11.28,33H97Z"/><path class="cls-1" d="M146.83,67.59h-3.7l-.88-3.88a13.82,13.82,0,0,1-4.62,3.65,13,13,0,0,1-5.32,1A15.53,15.53,0,0,1,125.68,67a14.54,14.54,0,0,1-5-3.72,16.44,16.44,0,0,1-3.12-5.5,21,21,0,0,1,0-13.36,16.44,16.44,0,0,1,3.12-5.5,14.74,14.74,0,0,1,5-3.75,15.39,15.39,0,0,1,6.63-1.39,17.88,17.88,0,0,1,5.11.72,13.63,13.63,0,0,1,4.32,2.13,11.89,11.89,0,0,1,3.15,3.53,12.56,12.56,0,0,1,1.57,4.91h-5.64a7.37,7.37,0,0,0-1-2.85,7.22,7.22,0,0,0-1.91-2.06,8.38,8.38,0,0,0-2.59-1.24,10.68,10.68,0,0,0-3-.42,9.36,9.36,0,0,0-4.55,1.06,8.9,8.9,0,0,0-3.12,2.85,12.65,12.65,0,0,0-1.78,4,18.73,18.73,0,0,0,0,9.25,12.65,12.65,0,0,0,1.78,4,8.9,8.9,0,0,0,3.12,2.85,9.25,9.25,0,0,0,4.55,1.06,10.7,10.7,0,0,0,3.93-.58,7.63,7.63,0,0,0,2.89-1.8,7.54,7.54,0,0,0,1.78-2.89,12.17,12.17,0,0,0,.65-3.79h-8.79V50.21h14.06Z"/><path class="cls-1" d="M162,34.58h6.14l12.72,33h-6.2l-3.09-8.74H158.34l-3.1,8.74h-6Zm-2,19.88H170l-5-14.19h-.14Z"/><path class="cls-1" d="M183.72,34.58h6.1L204.89,58.9h.1V34.58h5.5v33h-6.1l-15-24.27h-.14V67.59h-5.5Z"/><path class="cls-1" d="M246.13,67.59h-3.7l-.88-3.88a13.82,13.82,0,0,1-4.62,3.65,13,13,0,0,1-5.32,1A15.56,15.56,0,0,1,225,67a14.63,14.63,0,0,1-5-3.72,16.44,16.44,0,0,1-3.12-5.5,21,21,0,0,1,0-13.36,16.44,16.44,0,0,1,3.12-5.5,14.84,14.84,0,0,1,5-3.75,15.42,15.42,0,0,1,6.63-1.39,17.83,17.83,0,0,1,5.11.72,13.79,13.79,0,0,1,4.33,2.13,11.86,11.86,0,0,1,3.14,3.53,12.4,12.4,0,0,1,1.57,4.91h-5.64a7.21,7.21,0,0,0-1-2.85,7.4,7.4,0,0,0-1.92-2.06,8.38,8.38,0,0,0-2.59-1.24,10.68,10.68,0,0,0-3-.42,9.36,9.36,0,0,0-4.55,1.06,8.9,8.9,0,0,0-3.12,2.85,12.87,12.87,0,0,0-1.78,4,18.73,18.73,0,0,0,0,9.25,12.87,12.87,0,0,0,1.78,4,8.9,8.9,0,0,0,3.12,2.85,9.25,9.25,0,0,0,4.55,1.06,10.7,10.7,0,0,0,3.93-.58,7.63,7.63,0,0,0,2.89-1.8,7.54,7.54,0,0,0,1.78-2.89,12.17,12.17,0,0,0,.65-3.79h-8.78V50.21h14Z"/><path class="cls-1" d="M256.21,56.59a7.24,7.24,0,0,0,.65,3.23,5.79,5.79,0,0,0,1.8,2.2,7.68,7.68,0,0,0,2.66,1.25,13,13,0,0,0,3.26.39,10.51,10.51,0,0,0,3.23-.44A6.57,6.57,0,0,0,270,62.09a4.17,4.17,0,0,0,1.2-1.6,4.89,4.89,0,0,0,.37-1.82,3.94,3.94,0,0,0-.86-2.8,4.91,4.91,0,0,0-1.87-1.27,41,41,0,0,0-4.09-1.23q-2.34-.57-5.76-1.5a12.42,12.42,0,0,1-3.53-1.45,8.74,8.74,0,0,1-2.25-2A7.09,7.09,0,0,1,252,46.05a9.18,9.18,0,0,1-.35-2.55,8.63,8.63,0,0,1,1-4.32,9.18,9.18,0,0,1,2.75-3,12.19,12.19,0,0,1,3.88-1.78,17.39,17.39,0,0,1,9.27.1,11.69,11.69,0,0,1,4,2,9.47,9.47,0,0,1,3.77,7.86h-5.78a5.54,5.54,0,0,0-2.17-4.51,8.6,8.6,0,0,0-4.95-1.32,10.79,10.79,0,0,0-2.08.21,6.77,6.77,0,0,0-1.94.69A4.26,4.26,0,0,0,258,40.73a4,4,0,0,0,.5,4.83,7.15,7.15,0,0,0,2.85,1.5l1.45.4,2.85.76,3.07.81c1,.26,1.72.45,2.15.58A9.75,9.75,0,0,1,273.73,51a9.12,9.12,0,0,1,2,2,8.34,8.34,0,0,1,1.2,2.43,8.63,8.63,0,0,1,.4,2.59,9.29,9.29,0,0,1-1.14,4.74,9.55,9.55,0,0,1-3,3.21A13.07,13.07,0,0,1,269,67.8a20.49,20.49,0,0,1-4.81.58,19.93,19.93,0,0,1-5.32-.7,12.61,12.61,0,0,1-4.35-2.12,10.43,10.43,0,0,1-2.95-3.68,12.2,12.2,0,0,1-1.16-5.29Z"/><path class="cls-1" d="M281.13,52.52h13.45v5H281.13Z"/><path class="cls-2" d="M34.58,70.5h5.78V89.74c0,1.11,0,2.23.16,3.37a7.66,7.66,0,0,0,.93,3.07,5.83,5.83,0,0,0,2.31,2.25,9,9,0,0,0,4.37.88,9,9,0,0,0,4.37-.88,6,6,0,0,0,2.31-2.25,7.65,7.65,0,0,0,.92-3.07c.11-1.14.16-2.26.16-3.37V70.5h5.78V91.63a14.45,14.45,0,0,1-1,5.55A10.65,10.65,0,0,1,58,101.13a11.33,11.33,0,0,1-4.28,2.38,19.86,19.86,0,0,1-11.09,0,11.33,11.33,0,0,1-4.28-2.38,10.76,10.76,0,0,1-2.75-3.95,14.45,14.45,0,0,1-1-5.55Z"/><path class="cls-2" d="M65.19,70.5H91.91v5H81.41v28H75.63v-28H65.19Z"/><path class="cls-2" d="M99.53,92.51a7.46,7.46,0,0,0,.65,3.24,5.84,5.84,0,0,0,1.8,2.19,7.68,7.68,0,0,0,2.66,1.25,13,13,0,0,0,3.26.39,10.28,10.28,0,0,0,3.24-.44A6.51,6.51,0,0,0,113.31,98a4,4,0,0,0,1.2-1.59,4.71,4.71,0,0,0,.37-1.83,4,4,0,0,0-.85-2.8,5,5,0,0,0-1.87-1.27,38.91,38.91,0,0,0-4.1-1.22q-2.32-.58-5.75-1.51a12.37,12.37,0,0,1-3.54-1.45,8.33,8.33,0,0,1-2.24-2A7,7,0,0,1,95.35,82,9.49,9.49,0,0,1,95,79.43a8.65,8.65,0,0,1,1-4.33,9.36,9.36,0,0,1,2.75-3,11.82,11.82,0,0,1,3.89-1.78,16.81,16.81,0,0,1,4.39-.58,17.18,17.18,0,0,1,4.88.67,12.24,12.24,0,0,1,4,2,9.54,9.54,0,0,1,3.77,7.86H114a5.6,5.6,0,0,0-2.17-4.51,8.65,8.65,0,0,0-5-1.32,10.71,10.71,0,0,0-2.08.21,6.67,6.67,0,0,0-1.94.69,4.4,4.4,0,0,0-1.46,1.32,4,4,0,0,0,.51,4.83A6.93,6.93,0,0,0,104.71,83l1.46.39,2.84.76,3.08.81,2.15.58a9.77,9.77,0,0,1,2.82,1.39,8.71,8.71,0,0,1,2,2,8.17,8.17,0,0,1,1.2,2.42,9,9,0,0,1,.39,2.59,9.39,9.39,0,0,1-1.13,4.74,9.66,9.66,0,0,1-3,3.21,12.79,12.79,0,0,1-4.21,1.83,20.52,20.52,0,0,1-10.12-.11,12.63,12.63,0,0,1-4.35-2.13,10.45,10.45,0,0,1-3-3.68,12.2,12.2,0,0,1-1.15-5.29Z"/><path class="cls-2" d="M122.56,70.5h26.72v5h-10.5v28H133v-28H122.56Z"/><path class="cls-2" d="M153.12,70.5h5.77v33h-5.77Z"/><path class="cls-2" d="M166,70.5h5.78v28h16.78v5H166Z"/><path class="cls-2" d="M192.5,70.5h5.78v28h16.78v5H192.5Z"/><path class="cls-2" d="M219,70.5h5.78v33H219Z"/><path class="cls-2" d="M231.66,70.5h6.1l15.08,24.32h.09V70.5h5.5v33h-6.1l-15-24.27h-.14v24.27h-5.5Z"/><path class="cls-2" d="M294.07,103.51h-3.7l-.87-3.88a13.82,13.82,0,0,1-4.63,3.65,13,13,0,0,1-5.31,1,15.58,15.58,0,0,1-6.64-1.37,14.51,14.51,0,0,1-5-3.72,16.79,16.79,0,0,1-3.12-5.5,21,21,0,0,1,0-13.36,16.89,16.89,0,0,1,3.12-5.5,15,15,0,0,1,5-3.75,15.43,15.43,0,0,1,6.64-1.38,18.16,18.16,0,0,1,5.1.71A13.79,13.79,0,0,1,289,72.56a11.78,11.78,0,0,1,3.14,3.54A12.35,12.35,0,0,1,293.7,81h-5.64a7,7,0,0,0-2.91-4.9,8.3,8.3,0,0,0-2.59-1.25,10.61,10.61,0,0,0-3-.42A9.26,9.26,0,0,0,275,75.5a8.88,8.88,0,0,0-3.12,2.84,13.08,13.08,0,0,0-1.78,4,18.73,18.73,0,0,0,0,9.25,13,13,0,0,0,1.78,4.05A9,9,0,0,0,275,98.52a9.26,9.26,0,0,0,4.56,1.06,10.92,10.92,0,0,0,3.93-.57,7.85,7.85,0,0,0,2.89-1.81,7.71,7.71,0,0,0,1.78-2.89,12.18,12.18,0,0,0,.64-3.79H280V86.13h14.05Z"/><path class="cls-1" d="M181.66,140.83c0,2.63-1.79,3.82-4.52,3.82-3.48,0-5.26-2.13-5.26-5,0-4.62,3.47-7.11,10.58-9.79,5.21-2,9.93-4.27,9.93-9.34,0-4.27-2-5.06-6.8-5.06-3.73,0-6.31,1-6.31,2.23,0,.55.39.8,1,.8.84,0,1.19-.75,2.88-.75,2.58,0,3.28,2,3.28,3.73,0,3.67-3.28,5.56-6.16,5.56-3.63,0-5.26-2-5.26-5.31,0-4.87,3.42-9.29,14.45-9.29,8.69,0,13.31,2.28,12.67,8.54-1.3,11.77-12.17,8.2-19.52,11.08-.7.25-1.1.69-1.1,1s.15.7.65.7c.35,0,2.78-.1,4.22-.1,4.62,0,6.56,1.83,9.59,1.83,1.59,0,2.13-.29,2.23-1.24s-.49-1.44-.45-2.13a1.69,1.69,0,0,1,1.79-1.54c1.74,0,1.69,3,1.59,4.12-.74,6.9-2.58,10-6.31,10-8.34,0-7.4-8.59-13.51-8.59-1.19,0-1.88.5-1.88,1.09C179.48,138.1,181.66,137.55,181.66,140.83Z"/><path class="cls-1" d="M233,124.34c0,13-5.51,20.31-15.6,20.31-7.45,0-12.51-4.27-12.51-14.65,0-9.44,2.88-17.68,15.4-17.68C229.54,112.32,233,116.94,233,124.34Zm-9.93-3.53c0-4.82-.9-6.41-2.74-6.41-3.22,0-5.56,5-5.56,22.26,0,4.27,1,5,2.58,5C220.06,141.62,223.09,136.51,223.09,120.81Z"/><path class="cls-1" d="M243.3,140.83c0,2.63-1.79,3.82-4.52,3.82-3.47,0-5.26-2.13-5.26-5,0-4.62,3.47-7.11,10.58-9.79,5.21-2,9.93-4.27,9.93-9.34,0-4.27-2-5.06-6.8-5.06-3.73,0-6.31,1-6.31,2.23,0,.55.4.8,1,.8.85,0,1.19-.75,2.88-.75,2.59,0,3.28,2,3.28,3.73,0,3.67-3.28,5.56-6.16,5.56-3.62,0-5.26-2-5.26-5.31,0-4.87,3.42-9.29,14.45-9.29,8.69,0,13.31,2.28,12.67,8.54-1.29,11.77-12.17,8.2-19.52,11.08-.7.25-1.1.69-1.1,1s.15.7.65.7c.35,0,2.78-.1,4.22-.1,4.62,0,6.56,1.83,9.59,1.83,1.59,0,2.13-.29,2.23-1.24s-.49-1.44-.44-2.13a1.68,1.68,0,0,1,1.78-1.54c1.74,0,1.69,3,1.59,4.12-.74,6.9-2.58,10-6.3,10-8.35,0-7.41-8.59-13.52-8.59-1.19,0-1.88.5-1.88,1.09C241.12,138.1,243.3,137.55,243.3,140.83Z"/><path class="cls-1" d="M274,140.83c0,2.63-1.79,3.82-4.52,3.82-3.48,0-5.27-2.13-5.27-5,0-4.62,3.48-7.11,10.58-9.79,5.22-2,9.94-4.27,9.94-9.34,0-4.27-2-5.06-6.81-5.06-3.72,0-6.31,1-6.31,2.23,0,.55.4.8,1.05.8.84,0,1.19-.75,2.88-.75,2.58,0,3.28,2,3.28,3.73,0,3.67-3.28,5.56-6.16,5.56-3.63,0-5.27-2-5.27-5.31,0-4.87,3.43-9.29,14.46-9.29,8.69,0,13.31,2.28,12.66,8.54-1.29,11.77-12.17,8.2-19.52,11.08-.69.25-1.09.69-1.09,1s.15.7.65.7c.34,0,2.78-.1,4.22-.1,4.62,0,6.55,1.83,9.58,1.83,1.59,0,2.14-.29,2.24-1.24s-.5-1.44-.45-2.13a1.69,1.69,0,0,1,1.79-1.54c1.74,0,1.69,3,1.59,4.12-.75,6.9-2.58,10-6.31,10-8.34,0-7.4-8.59-13.51-8.59-1.19,0-1.89.5-1.89,1.09C271.76,138.1,274,137.55,274,140.83Z"/></svg>