<svg version="1.1" id="ntnu_logo" xmlns="http://www.w3.org/2000/svg" xmlns:xlink="http://www.w3.org/1999/xlink" x="0px" y="0px"
	 width="311.92px" height="80.9px" viewBox="0 0 311.92 80.9" enable-background="new 0 0 311.92 80.9" xml:space="preserve">
<g id="tagline">
	<g id="kunnskap">
		<polygon id="K" fill="#FFFFFF" points="71.36,75.48 69.7,75.48 65.28,68.56 64,69.889 64,75.491 62.59,75.491 62.59,61.209 
			64,61.209 64,68.291 69.5,61.209 71.17,61.209 66.29,67.411 		"/>
		<path id="u" fill="#FFFFFF" d="M74.45,64.781v6.938c0,0.871,0.17,1.521,0.51,1.951c0.34,0.429,0.87,0.639,1.59,0.639
			c0.95,0,1.65-0.309,2.09-0.92c0.44-0.608,0.66-1.608,0.66-3v-5.62h1.38v10.7h-1.14l-0.2-1.438h-0.07
			c-0.28,0.528-0.67,0.93-1.17,1.21c-0.5,0.278-1.07,0.42-1.71,0.42c-1.11,0-1.94-0.312-2.49-0.932
			c-0.55-0.619-0.83-1.608-0.83-2.97v-7h1.38V64.781z"/>
		<path id="n_2_" fill="#FFFFFF" d="M90.16,75.48v-6.92c0-0.87-0.17-1.52-0.51-1.95c-0.34-0.431-0.87-0.641-1.59-0.641
			c-0.95,0-1.65,0.301-2.09,0.91c-0.44,0.611-0.66,1.601-0.66,3V75.5h-1.38V64.799h1.12l0.22,1.46h0.07
			c0.28-0.529,0.68-0.938,1.19-1.229c0.51-0.29,1.08-0.432,1.7-0.432c1.1,0,1.92,0.312,2.47,0.932c0.55,0.619,0.83,1.619,0.83,2.979
			v6.981h-1.37V75.48z"/>
		<path id="n2" fill="#FFFFFF" d="M100.93,75.48v-6.92c0-0.87-0.17-1.52-0.51-1.95c-0.34-0.431-0.87-0.641-1.59-0.641
			c-0.95,0-1.65,0.301-2.09,0.91c-0.44,0.611-0.66,1.601-0.66,3V75.5H94.7V64.799h1.12l0.22,1.46h0.07
			c0.28-0.529,0.68-0.938,1.19-1.229c0.51-0.29,1.08-0.432,1.7-0.432c1.1,0,1.92,0.312,2.47,0.932c0.55,0.619,0.83,1.619,0.83,2.979
			v6.981h-1.37V75.48z"/>
		<path id="s" fill="#FFFFFF" d="M111.35,72.56c0,1-0.32,1.76-0.95,2.3c-0.63,0.54-1.52,0.81-2.66,0.81
			c-1.21,0-2.15-0.219-2.82-0.67v-1.5c0.44,0.26,0.91,0.47,1.41,0.621c0.5,0.149,0.98,0.219,1.45,0.219
			c0.72,0,1.27-0.139,1.66-0.409c0.39-0.27,0.58-0.681,0.58-1.24c0-0.42-0.15-0.771-0.46-1.069c-0.31-0.301-0.91-0.651-1.8-1.051
			c-0.85-0.369-1.45-0.69-1.81-0.97c-0.36-0.28-0.62-0.591-0.8-0.939c-0.18-0.351-0.26-0.771-0.26-1.261
			c0-0.869,0.3-1.561,0.9-2.069c0.6-0.511,1.43-0.761,2.48-0.761c0.98,0,1.94,0.229,2.87,0.7l-0.49,1.319
			c-0.91-0.439-1.74-0.659-2.48-0.659c-0.65,0-1.15,0.119-1.48,0.359c-0.33,0.241-0.5,0.57-0.5,1c0,0.291,0.06,0.53,0.19,0.73
			c0.13,0.199,0.32,0.391,0.6,0.58c0.28,0.189,0.81,0.449,1.59,0.79c1.08,0.46,1.81,0.93,2.19,1.399
			C111.16,71.27,111.35,71.85,111.35,72.56"/>
		<path id="k" fill="#FFFFFF" d="M115.29,70.01c0.24-0.4,0.6-0.92,1.09-1.561l2.94-3.66h1.64l-3.69,4.561l3.94,6.14h-1.67
			l-3.21-5.06l-1.04,1.05v4h-1.36V60.281h1.36v8.06c0,0.359-0.02,0.909-0.07,1.659h0.07V70.01z"/>
		<path id="a" fill="#FFFFFF" d="M128.79,75.48l-0.27-1.521h-0.07c-0.45,0.671-0.91,1.12-1.36,1.36c-0.45,0.24-1.01,0.36-1.69,0.36
			c-0.9,0-1.61-0.271-2.12-0.82c-0.51-0.55-0.77-1.32-0.77-2.33c0-2.16,1.47-3.29,4.41-3.399l1.54-0.061V68.4
			c0-0.84-0.15-1.46-0.46-1.86c-0.31-0.399-0.8-0.6-1.47-0.6c-0.76,0-1.62,0.27-2.57,0.82l-0.42-1.24c0.45-0.29,0.94-0.51,1.47-0.67
			c0.53-0.16,1.07-0.24,1.61-0.24c1.08,0,1.89,0.28,2.41,0.85c0.52,0.57,0.78,1.471,0.78,2.721v7.3H128.79z M125.68,74.34
			c0.86,0,1.53-0.28,2.02-0.83c0.49-0.551,0.73-1.33,0.73-2.32v-0.97l-1.38,0.069c-1.1,0.051-1.89,0.25-2.37,0.601
			c-0.48,0.35-0.73,0.91-0.73,1.66c0,0.59,0.15,1.029,0.45,1.34C124.71,74.19,125.13,74.34,125.68,74.34"/>
		<path id="p" fill="#FFFFFF" d="M137.22,75.68c-0.59,0-1.13-0.13-1.62-0.39c-0.49-0.261-0.9-0.65-1.23-1.19h-0.1
			c0.07,0.62,0.1,1.219,0.1,1.78v4.399h-1.38v-15.5h1.12l0.19,1.46h0.07c0.35-0.591,0.77-1.01,1.24-1.27
			c0.47-0.26,1.01-0.39,1.62-0.39c1.21,0,2.14,0.479,2.79,1.46c0.65,0.979,0.98,2.329,0.98,4.079c0,1.761-0.33,3.12-1,4.101
			C139.33,75.189,138.41,75.68,137.22,75.68 M137.02,65.96c-0.93,0-1.6,0.3-2.02,0.909c-0.42,0.61-0.63,1.569-0.64,2.891v0.359
			c0,1.5,0.21,2.58,0.64,3.23s1.11,0.97,2.05,0.97c0.79,0,1.4-0.37,1.85-1.12c0.45-0.75,0.67-1.779,0.67-3.1
			c0-1.33-0.22-2.36-0.67-3.07C138.46,66.319,137.83,65.96,137.02,65.96"/>
	</g>
	<g id="for">
		<path id="f" fill="#FFFFFF" d="M152.6,66.041h-2.32v9.438h-1.38v-9.438h-1.63v-0.73l1.63-0.59V64.12c0-2.63,0.98-3.949,2.93-3.949
			c0.48,0,1.05,0.109,1.69,0.34l-0.36,1.3c-0.53-0.201-0.99-0.3-1.36-0.3c-0.52,0-0.9,0.2-1.15,0.609
			c-0.25,0.41-0.37,1.061-0.37,1.961v0.688h2.32V66.041z"/>
		<path id="o" fill="#FFFFFF" d="M162.46,70.121c0,1.738-0.37,3.108-1.12,4.09c-0.75,0.979-1.78,1.47-3.1,1.47
			c-0.811,0-1.54-0.22-2.171-0.67c-0.629-0.451-1.12-1.09-1.459-1.93c-0.34-0.841-0.51-1.82-0.51-2.95c0-1.74,0.37-3.101,1.11-4.08
			c0.74-0.98,1.77-1.46,3.09-1.46c1.271,0,2.28,0.5,3.03,1.49C162.08,67.081,162.46,68.42,162.46,70.121 M155.53,70.121
			c0,1.369,0.23,2.409,0.7,3.119c0.471,0.711,1.15,1.069,2.051,1.069c0.899,0,1.59-0.358,2.05-1.069c0.47-0.71,0.7-1.761,0.7-3.131
			c0-1.358-0.23-2.389-0.7-3.099s-1.16-1.06-2.07-1.06c-0.899,0-1.58,0.35-2.04,1.039C155.76,67.68,155.53,68.74,155.53,70.121"/>
		<path id="r_1_" fill="#FFFFFF" d="M169.36,64.59c0.399,0,0.771,0.04,1.09,0.119l-0.19,1.5c-0.379-0.1-0.71-0.149-1-0.149
			c-0.74,0-1.37,0.35-1.89,1.05c-0.521,0.7-0.78,1.58-0.78,2.63v5.74h-1.38v-10.7h1.14l0.16,1.98h0.07c0.34-0.7,0.74-1.23,1.22-1.61
			C168.27,64.77,168.79,64.59,169.36,64.59"/>
	</g>
	<g id="en">
		<path id="e_2_" fill="#FFFFFF" d="M181.09,75.679c-1.34,0-2.41-0.479-3.18-1.449c-0.78-0.96-1.17-2.301-1.17-4.011
			c0-1.729,0.359-3.099,1.08-4.109c0.72-1.011,1.689-1.521,2.91-1.521c1.14,0,2.039,0.441,2.71,1.321c0.67,0.88,1,2.05,1,3.489
			v1.029h-6.271c0.029,1.261,0.3,2.21,0.811,2.861c0.51,0.649,1.229,0.979,2.159,0.979c0.98,0,1.95-0.239,2.91-0.721V75
			c-0.49,0.25-0.95,0.419-1.38,0.53C182.23,75.629,181.71,75.679,181.09,75.679 M180.72,65.94c-0.729,0-1.31,0.279-1.75,0.841
			c-0.43,0.559-0.689,1.329-0.771,2.318h4.761c0-1.019-0.19-1.809-0.58-2.349S181.44,65.94,180.72,65.94"/>
		<path id="n_1_" fill="#FFFFFF" d="M193.35,75.48v-6.92c0-0.87-0.17-1.52-0.51-1.95s-0.87-0.641-1.59-0.641
			c-0.95,0-1.65,0.301-2.09,0.91c-0.44,0.611-0.66,1.601-0.66,3V75.5h-1.38V64.799h1.12l0.22,1.46h0.07
			c0.279-0.529,0.68-0.938,1.189-1.229c0.511-0.29,1.08-0.432,1.7-0.432c1.1,0,1.92,0.312,2.47,0.932
			c0.551,0.619,0.83,1.619,0.83,2.979v6.981h-1.37V75.48z"/>
	</g>
	<g id="bedre">
		<path fill="#FFFFFF" d="M206.89,64.6c1.2,0,2.12,0.48,2.79,1.44c0.66,0.96,0.989,2.318,0.989,4.079s-0.329,3.12-1,4.101
			c-0.669,0.969-1.589,1.46-2.779,1.46c-0.59,0-1.13-0.13-1.62-0.39c-0.489-0.261-0.899-0.65-1.229-1.19h-0.1l-0.29,1.38h-0.99
			v-15.2h1.38v3.69c0,0.83-0.021,1.57-0.07,2.229h0.07C204.68,65.14,205.629,64.6,206.89,64.6 M206.69,65.96
			c-0.94,0-1.62,0.319-2.03,0.949c-0.41,0.631-0.62,1.699-0.62,3.21s0.21,2.58,0.64,3.23c0.431,0.65,1.11,0.969,2.051,0.969
			c0.85,0,1.479-0.358,1.89-1.089c0.41-0.729,0.62-1.77,0.62-3.13c0-1.39-0.21-2.43-0.62-3.12
			C208.21,66.291,207.56,65.96,206.69,65.96"/>
		<path fill="#FFFFFF" d="M217.26,75.679c-1.34,0-2.41-0.479-3.18-1.449c-0.78-0.96-1.17-2.301-1.17-4.011
			c0-1.729,0.359-3.099,1.08-4.109c0.72-1.011,1.689-1.521,2.911-1.521c1.139,0,2.039,0.441,2.709,1.321s1,2.05,1,3.489v1.029
			h-6.271c0.03,1.261,0.3,2.21,0.812,2.861c0.509,0.649,1.229,0.979,2.158,0.979c0.98,0,1.95-0.239,2.91-0.721V75
			c-0.489,0.25-0.95,0.419-1.38,0.53C218.41,75.639,217.87,75.679,217.26,75.679 M216.88,65.94c-0.729,0-1.31,0.279-1.75,0.841
			c-0.43,0.559-0.689,1.329-0.77,2.318h4.76c0-1.019-0.19-1.809-0.58-2.349C218.16,66.21,217.6,65.94,216.88,65.94"/>
		<path fill="#FFFFFF" d="M229.48,74.049h-0.07c-0.641,1.09-1.59,1.63-2.86,1.63c-1.189,0-2.12-0.479-2.78-1.438
			c-0.659-0.96-0.989-2.32-0.989-4.08c0-1.762,0.33-3.13,1-4.111c0.67-0.979,1.59-1.459,2.77-1.459c1.23,0,2.181,0.53,2.84,1.58
			h0.11l-0.06-0.771l-0.03-0.75v-4.358h1.38v15.2h-1.12L229.48,74.049z M226.73,74.32c0.939,0,1.619-0.301,2.05-0.899
			c0.43-0.601,0.64-1.571,0.64-2.92v-0.34c0-1.521-0.21-2.602-0.64-3.25c-0.431-0.651-1.11-0.972-2.05-0.972
			c-0.811,0-1.431,0.37-1.86,1.11c-0.43,0.741-0.64,1.781-0.64,3.13c0,1.37,0.21,2.401,0.64,3.102
			C225.28,73.969,225.9,74.32,226.73,74.32"/>
		<path fill="#FFFFFF" d="M238.2,64.59c0.399,0,0.77,0.04,1.09,0.119l-0.19,1.5c-0.38-0.1-0.71-0.149-1-0.149
			c-0.739,0-1.369,0.35-1.89,1.05c-0.52,0.7-0.781,1.58-0.781,2.63v5.74h-1.379v-10.7h1.141l0.159,1.98h0.07
			c0.34-0.7,0.74-1.23,1.22-1.61C237.12,64.77,237.63,64.59,238.2,64.59"/>
		<path fill="#FFFFFF" d="M245.17,75.679c-1.34,0-2.41-0.479-3.18-1.449c-0.78-0.96-1.17-2.301-1.17-4.011
			c0-1.729,0.359-3.099,1.08-4.109c0.72-1.011,1.689-1.521,2.909-1.521c1.141,0,2.04,0.441,2.71,1.321c0.671,0.88,1,2.05,1,3.489
			v1.029h-6.27c0.03,1.261,0.3,2.21,0.81,2.861c0.511,0.649,1.23,0.979,2.16,0.979c0.98,0,1.95-0.239,2.91-0.721V75
			c-0.49,0.25-0.95,0.419-1.38,0.53C246.31,75.629,245.78,75.679,245.17,75.679 M244.8,65.94c-0.729,0-1.31,0.279-1.75,0.841
			c-0.43,0.559-0.689,1.329-0.77,2.318h4.76c0-1.019-0.19-1.809-0.58-2.349S245.52,65.94,244.8,65.94"/>
	</g>
	<g id="verden">
		<path id="v" fill="#FFFFFF" d="M257.95,75.48l-3.45-10.699h1.48l1.96,6.349c0.439,1.48,0.699,2.451,0.779,2.891h0.07
			c0.06-0.351,0.25-1.061,0.58-2.141s1.05-3.45,2.18-7.089h1.48l-3.45,10.7h-1.63V75.48z"/>
		<path id="e_1_" fill="#FFFFFF" d="M268.66,75.679c-1.34,0-2.41-0.479-3.18-1.449c-0.78-0.96-1.171-2.301-1.171-4.011
			c0-1.729,0.36-3.099,1.08-4.109c0.721-1.011,1.69-1.521,2.91-1.521c1.141,0,2.04,0.441,2.71,1.321s1,2.05,1,3.489v1.029h-6.27
			c0.028,1.261,0.3,2.21,0.81,2.861c0.51,0.649,1.23,0.979,2.16,0.979c0.98,0,1.95-0.239,2.91-0.721V75
			c-0.49,0.25-0.95,0.419-1.38,0.53C269.8,75.629,269.28,75.679,268.66,75.679 M268.29,65.94c-0.73,0-1.31,0.279-1.75,0.841
			c-0.43,0.559-0.69,1.329-0.771,2.318h4.762c0-1.019-0.19-1.809-0.58-2.349C269.56,66.21,269.01,65.94,268.29,65.94"/>
		<path id="r" fill="#FFFFFF" d="M278.85,64.59c0.4,0,0.771,0.04,1.091,0.119l-0.19,1.5c-0.379-0.1-0.71-0.149-1-0.149
			c-0.74,0-1.37,0.35-1.89,1.05c-0.521,0.7-0.78,1.58-0.78,2.63v5.74h-1.38v-10.7h1.14l0.16,1.98h0.07
			c0.34-0.7,0.739-1.23,1.22-1.61C277.75,64.77,278.28,64.59,278.85,64.59"/>
		<path id="d" fill="#FFFFFF" d="M288.17,74.049h-0.07c-0.64,1.09-1.59,1.63-2.859,1.63c-1.19,0-2.12-0.479-2.78-1.438
			s-0.99-2.32-0.99-4.08c0-1.762,0.33-3.13,1-4.111c0.669-0.979,1.59-1.459,2.771-1.459c1.229,0,2.18,0.53,2.84,1.58h0.11
			l-0.061-0.771l-0.03-0.75v-4.358h1.381v15.2h-1.12L288.17,74.049z M285.41,74.32c0.939,0,1.62-0.301,2.05-0.899
			c0.42-0.601,0.64-1.571,0.64-2.92v-0.34c0-1.521-0.211-2.602-0.64-3.25c-0.43-0.651-1.11-0.972-2.05-0.972
			c-0.811,0-1.43,0.37-1.86,1.11c-0.43,0.741-0.64,1.781-0.64,3.13c0,1.37,0.21,2.401,0.64,3.102
			C283.98,73.979,284.59,74.32,285.41,74.32"/>
		<path id="e" fill="#FFFFFF" d="M296.58,75.679c-1.34,0-2.41-0.479-3.18-1.449c-0.78-0.96-1.17-2.301-1.17-4.011
			c0-1.729,0.359-3.099,1.079-4.109c0.721-1.011,1.69-1.521,2.91-1.521c1.141,0,2.04,0.441,2.709,1.321c0.671,0.88,1,2.05,1,3.489
			v1.029h-6.269c0.03,1.261,0.3,2.21,0.81,2.861c0.511,0.649,1.23,0.979,2.16,0.979c0.98,0,1.95-0.239,2.91-0.721V75
			c-0.49,0.25-0.95,0.419-1.38,0.53C297.71,75.629,297.19,75.679,296.58,75.679 M296.2,65.94c-0.73,0-1.311,0.279-1.75,0.841
			c-0.431,0.559-0.69,1.329-0.771,2.318h4.762c0-1.019-0.19-1.809-0.58-2.349C297.47,66.21,296.92,65.94,296.2,65.94"/>
		<path id="n" fill="#FFFFFF" d="M308.84,75.48v-6.92c0-0.87-0.17-1.52-0.51-1.95s-0.87-0.641-1.59-0.641
			c-0.95,0-1.65,0.301-2.09,0.91c-0.44,0.611-0.66,1.601-0.66,3V75.5h-1.38V64.799h1.12l0.22,1.46h0.069
			c0.28-0.529,0.681-0.938,1.19-1.229s1.08-0.432,1.7-0.432c1.1,0,1.92,0.312,2.47,0.932c0.55,0.619,0.83,1.619,0.83,2.979v6.981
			h-1.37V75.48z"/>
	</g>
</g>
<g id="logo">
	<g id="org_name">
		<polygon id="N_1_" fill="#FFFFFF" points="74.96,0.05 96.44,31.27 96.44,7.25 96.38,1.54 89.93,1.54 89.93,0.05 103.77,0.05 
			103.77,1.54 98.43,1.54 98.37,7.25 98.37,44.43 97.38,44.74 68.56,2.84 68.56,36.49 68.62,42.39 75.26,42.39 75.26,43.88 
			60.93,43.88 60.93,42.39 66.64,42.39 66.7,36.49 66.7,7.25 66.64,1.54 60.93,1.54 60.93,0.05 		"/>
		<path id="T" fill="#FFFFFF" d="M146.6,0.05v14.03h-1.86c-0.19-2.17-0.44-4.9-2.36-8.13c-2.23-3.79-5.28-3.97-8.26-4.1h-3.48
			l-0.06,5.59v28.62l0.06,6.33h6.71v1.49h-20.36v-1.49h6.7l0.06-6.33V7.43l-0.06-5.59h-2.86c-3.6,0.06-6.33,0.06-8.94,4.22
			c-2.05,3.29-2.23,5.9-2.36,8.01h-1.8V0.05H146.6z"/>
		<polygon id="N" fill="#FFFFFF" points="164.23,0.05 185.71,31.27 185.71,7.25 185.65,1.54 179.19,1.54 179.19,0.05 193.03,0.05 
			193.03,1.54 187.69,1.54 187.63,7.25 187.63,44.43 186.64,44.74 157.84,2.83 157.84,36.48 157.9,42.38 164.54,42.38 164.54,43.87 
			150.201,43.87 150.201,42.38 155.911,42.38 155.971,36.48 155.971,7.25 155.911,1.54 150.201,1.54 150.201,0.05 		"/>
		<path id="U" fill="#FFFFFF" d="M217.13,0.05v1.49h-6.149l-0.061,5.28v23.72c0.061,6.15,0.19,11.98,11.731,11.98
			c11.669,0,12.408-5.09,12.599-10.62V6.81l-0.06-5.28h-6.271V0.05h13.71v1.49h-5.399l-0.061,5.28v22.6
			c-0.06,8.13-0.13,15.08-16.2,15.08c-2.29,0-7.76-0.25-11.229-1.68c-5.53-2.36-5.65-7.2-5.71-13.16V6.81l-0.061-5.28h-5.34V0.05
			H217.13z"/>
	</g>
	<g id="ntnu_symbol">
		<path id="symbol-surround" fill="#FFFFFF" d="M33.08,0H11.02C4.94,0,0,4.94,0,11.02v22.06C0,39.17,4.94,44.1,11.02,44.1h22.06
			c6.09,0,11.02-4.94,11.02-11.02V11.02C44.1,4.94,39.17,0,33.08,0 M33.08,33.08H11.02V11.02h22.06V33.08z"/>
		<path id="symbol-inside" fill="#FFFFFF" d="M21.98,12.93c-5,0-9.05,4.05-9.05,9.05s4.05,9.05,9.05,9.05s9.05-4.05,9.05-9.05
			C31.02,16.98,26.97,12.93,21.98,12.93"/>
	</g>
</g>
</svg>
